#!OML:ASF H:\Swim 2\Project 1\Capture day 1\Session 1\male.ASF
:FULLY-SPECIFIED
:DEGREES
1964
root 2.4902 14.3558 9.45898 104.235 -2.21959 -10.0478
lowerback -25.1384 13.9557 -3.59166
upperback -7.01475 19.7916 5.71338
thorax 2.07179 10.444 12.9257
lowerneck -3.57221 8.3515 40.0204
upperneck 26.7161 9.05408 -13.402
head 12.3388 6.69441 -10.5447
rclavicle 4.13472e-014 3.18055e-014
rhumerus 58.0129 -4.39409 2.02282
rradius 32.0918
rwrist -21.0989
rhand -28.3689 -10.66
rfingers 7.12502
rthumb -1.74221 -40.6326
lclavicle 4.13472e-014 3.18055e-014
lhumerus -92.6912 -52.6884 119.7
lradius 31.3798
lwrist -7.16175
lhand -43.4957 -36.8178
lfingers 7.12502
lthumb -16.3357 -7.48579
rfemur -51.2951 4.27076 13.3568
rtibia 27.0604
rfoot 13.8124 -9.44305
rtoes 22.5929
lfemur -42.9485 10.2945 -37.1368
ltibia 49.1914
lfoot 14.2436 5.67021
ltoes 15.1641
1965
root 2.4994 14.3556 9.4604 103.962 -1.9198 -9.82006
lowerback -24.9429 13.9355 -3.36484
upperback -6.98353 19.6969 5.78068
thorax 2.08513 10.3863 12.8281
lowerneck -3.15162 8.29272 40.051
upperneck 26.5461 9.14597 -13.3973
head 12.2172 6.73434 -10.5294
rclavicle 6.36111e-015 2.70347e-014
rhumerus 57.8841 -4.13564 2.12176
rradius 31.7857
rwrist -20.3795
rhand -28.3175 -10.5523
rfingers 7.12502
rthumb -1.69254 -40.5253
lclavicle 6.36111e-015 2.70347e-014
lhumerus -90.1036 -52.6348 116.374
lradius 28.8718
lwrist -8.98721
lhand -43.2546 -35.5882
lfingers 7.12502
lthumb -16.1036 -6.23727
rfemur -51.0441 4.30046 13.3333
rtibia 26.134
rfoot 12.6535 -9.99686
rtoes 23.1044
lfemur -42.8039 10.721 -37.3133
ltibia 50.3805
lfoot 15.3561 4.86885
ltoes 15.8044
1966
root 2.5085 14.3551 9.45868 103.69 -1.61756 -9.58206
lowerback -24.7448 13.9059 -3.13432
upperback -6.9585 19.5898 5.84429
thorax 2.09508 10.3227 12.721
lowerneck -2.72009 8.23213 40.0694
upperneck 26.3667 9.24365 -13.3986
head 12.0911 6.7751 -10.5145
rclavicle -1.20861e-013 -1.51076e-014
rhumerus 57.7512 -3.8751 2.26597
rradius 31.5025
rwrist -19.6419
rhand -28.2704 -10.4229
rfingers 7.12502
rthumb -1.6471 -40.3963
lclavicle -1.20861e-013 -1.51076e-014
lhumerus -87.0344 -52.4776 112.32
lradius 26.514
lwrist -10.2069
lhand -42.912 -34.3213
lfingers 7.12502
lthumb -15.7736 -4.94397
rfemur -50.7928 4.32644 13.2929
rtibia 25.4734
rfoot 11.691 -10.4366
rtoes 23.5798
lfemur -42.7394 11.0338 -37.4395
ltibia 51.5469
lfoot 16.646 4.09284
ltoes 16.5206
1967
root 2.51756 14.3542 9.45374 103.417 -1.31519 -9.33847
lowerback -24.5442 13.8666 -2.89873
upperback -6.93776 19.4689 5.90502
thorax 2.10408 10.252 12.6048
lowerneck -2.26901 8.17039 40.0711
upperneck 26.1783 9.35157 -13.4051
head 11.96 6.81873 -10.4987
rclavicle 4.77083e-014 7.95139e-015
rhumerus 57.6224 -3.61135 2.44617
rradius 31.239
rwrist -18.8766
rhand -28.2253 -10.2804
rfingers 7.12502
rthumb -1.60352 -40.2541
lclavicle 4.77083e-014 7.95139e-015
lhumerus -83.4493 -52.157 107.496
lradius 24.3022
lwrist -10.9316
lhand -42.4097 -33.1842
lfingers 7.12502
lthumb -15.2898 -3.76934
rfemur -50.5501 4.32513 13.256
rtibia 25.1017
rfoot 10.9614 -10.7634
rtoes 24.0218
lfemur -42.7487 11.2277 -37.5208
ltibia 52.66
lfoot 18.1198 3.3866
ltoes 17.257
1968
root 2.52651 14.3528 9.4456 103.143 -1.0138 -9.09602
lowerback -24.3428 13.8176 -2.65738
upperback -6.91956 19.3342 5.96393
thorax 2.11465 10.1739 12.4811
lowerneck -1.79047 8.10835 40.0532
upperneck 25.9793 9.47382 -13.4162
head 11.8231 6.86705 -10.4808
rclavicle 1.90833e-014 1.59028e-014
rhumerus 57.5045 -3.34248 2.65507
rradius 30.9917
rwrist -18.0748
rhand -28.1797 -10.1311
rfingers 7.12502
rthumb -1.5595 -40.1052
lclavicle 1.90833e-014 1.59028e-014
lhumerus -79.325 -51.5968 101.874
lradius 22.22
lwrist -11.3554
lhand -41.7216 -32.2991
lfingers 7.12502
lthumb -14.6269 -2.83496
rfemur -50.3246 4.27427 13.2448
rtibia 25.0292
rfoot 10.4847 -10.9658
rtoes 24.4259
lfemur -42.8273 11.3044 -37.5624
ltibia 53.6915
lfoot 19.7706 2.79324
ltoes 17.9663
1969
root 2.53516 14.3511 9.43442 102.87 -0.713566 -8.86141
lowerback -24.1434 13.759 -2.41021
upperback -6.90259 19.1853 6.02193
thorax 2.12903 10.0881 12.3518
lowerneck -1.2775 8.04747 40.0151
upperneck 25.7676 9.61434 -13.4309
head 11.6794 6.92197 -10.4598
rclavicle 5.08889e-014 6.44062e-014
rhumerus 57.4039 -3.06667 2.88623
rradius 30.757
rwrist -17.2305
rhand -28.1317 -9.9731
rfingers 7.12502
rthumb -1.51311 -39.9475
lclavicle 5.08889e-014 6.44062e-014
lhumerus -74.6928 -50.7057 95.4813
lradius 20.2491
lwrist -11.7407
lhand -40.8762 -31.7143
lfingers 7.12502
lthumb -13.8124 -2.19282
rfemur -50.1224 4.15913 13.2754
rtibia 25.2523
rfoot 10.2601 -11.0272
rtoes 24.774
lfemur -42.973 11.2715 -37.5684
ltibia 54.6167
lfoot 21.5664 2.34303
ltoes 18.6018
1970
root 2.54325 14.3491 9.42035 102.6 -0.414241 -8.63915
lowerback -23.9495 13.69 -2.15843
upperback -6.88612 19.0216 6.08002
thorax 2.14892 9.99423 12.2196
lowerneck -0.72735 7.99034 39.9571
upperneck 25.5425 9.77681 -13.4488
head 11.5294 6.98535 -10.4352
rclavicle -2.54444e-014 7.95139e-015
rhumerus 57.3259 -2.78248 3.13528
rradius 30.532
rwrist -16.3408
rhand -28.0784 -9.79367
rfingers 7.12502
rthumb -1.46166 -39.7684
lclavicle -2.54444e-014 7.95139e-015
lhumerus -69.6303 -49.3762 88.3896
lradius 18.3715
lwrist -12.3964
lhand -39.9321 -31.3826
lfingers 7.12502
lthumb -12.9023 -1.8014
rfemur -49.9476 3.97614 13.3523
rtibia 25.7541
rfoot 10.2664 -10.9369
rtoes 25.0587
lfemur -43.1854 11.1385 -37.5419
ltibia 55.415
lfoot 23.4426 2.04533
ltoes 19.1453
1971
root 2.55053 14.3468 9.40365 102.338 -0.114063 -8.42992
lowerback -23.7634 13.6089 -1.90138
upperback -6.86988 18.8402 6.13927
thorax 2.17589 9.89082 12.0853
lowerneck -0.138869 7.93935 39.8866
upperneck 25.2966 9.96555 -13.4786
head 11.3723 7.05879 -10.4111
rclavicle 1.145e-013 8.50798e-014
rhumerus 57.2767 -2.48964 3.39624
rradius 30.3142
rwrist -15.4031
rhand -28.0208 -9.5648
rfingers 7.12502
rthumb -1.406 -39.5399
lclavicle 1.145e-013 8.50798e-014
lhumerus -64.2757 -47.4893 80.7245
lradius 16.5781
lwrist -13.6485
lhand -38.9619 -31.2
lfingers 7.12502
lthumb -11.9669 -1.56211
rfemur -49.8 3.73096 13.4714
rtibia 26.5076
rfoot 10.4519 -10.7003
rtoes 25.2118
lfemur -43.4625 10.9164 -37.4831
ltibia 56.0699
lfoot 25.3018 1.87726
ltoes 19.5979
1972
root 2.55679 14.3445 9.38453 102.085 0.189295 -8.23112
lowerback -23.587 13.5131 -1.63676
upperback -6.85344 18.6368 6.2005
thorax 2.21246 9.77543 11.9486
lowerneck 0.486779 7.89657 39.8064
upperneck 25.0232 10.1839 -13.5285
head 11.2075 7.1432 -10.391
rclavicle -3.49861e-014 -5.24792e-014
rhumerus 57.2633 -2.18937 3.66277
rradius 30.1011
rwrist -14.4135
rhand -27.9588 -9.26033
rfingers 7.12502
rthumb -1.34609 -39.2358
lclavicle -3.49861e-014 -5.24792e-014
lhumerus -60.5307 -45.9586 74.538
lradius 15.5912
lwrist -14.136
lhand -37.9841 -30.6096
lfingers 7.12502
lthumb -11.024 -0.91911
rfemur -49.6766 3.43476 13.6228
rtibia 27.4789
rfoot 10.7616 -10.3394
rtoes 25.1991
lfemur -43.8014 10.6157 -37.3906
ltibia 56.5681
lfoot 27.0227 1.78218
ltoes 19.9529
1973
root 2.56186 14.3421 9.36322 101.844 0.49932 -8.03937
lowerback -23.4208 13.3999 -1.35984
upperback -6.83639 18.4065 6.26455
thorax 2.26124 9.64524 11.8074
lowerneck 1.14958 7.86276 39.7155
upperneck 24.7138 10.4343 -13.6072
head 11.0328 7.23874 -10.3781
rclavicle -7.63333e-014 -4.29375e-014
rhumerus 57.2938 -1.884 3.92609
rradius 29.8905
rwrist -13.363
rhand -27.8916 -8.86345
rfingers 7.12502
rthumb -1.28122 -38.8393
lclavicle -7.63333e-014 -4.29375e-014
lhumerus -56.9717 -44.2373 68.4273
lradius 14.6855
lwrist -15.1545
lhand -37.1211 -29.9323
lfingers 7.12502
lthumb -10.1914 -0.199184
rfemur -49.5714 3.09927 13.7979
rtibia 28.6305
rfoot 11.1452 -9.88841
rtoes 25.0029
lfemur -44.1963 10.2487 -37.2622
ltibia 56.9
lfoot 28.4769 1.68279
ltoes 20.1679
1974
root 2.56561 14.3397 9.33997 101.617 0.819103 -7.8532
lowerback -23.2649 13.2678 -1.06543
upperback -6.81814 18.1454 6.33182
thorax 2.32458 9.49806 11.6587
lowerneck 1.84959 7.83794 39.608
upperneck 24.3596 10.7177 -13.7212
head 10.8452 7.34483 -10.3739
rclavicle -4.13472e-014 -2.70347e-014
rhumerus 57.3752 -1.57689 4.17485
rradius 29.6803
rwrist -12.2357
rhand -27.8195 -8.37147
rfingers 7.12502
rthumb -1.21154 -38.3478
lclavicle -4.13472e-014 -2.70347e-014
lhumerus -53.5884 -42.3059 62.3851
lradius 13.828
lwrist -16.8819
lhand -36.4047 -29.1278
lfingers 7.12502
lthumb -9.50033 0.638052
rfemur -49.4767 2.7347 13.9904
rtibia 29.9235
rfoot 11.5727 -9.38616
rtoes 24.658
lfemur -44.6403 9.8294 -37.097
ltibia 57.0589
lfoot 29.5504 1.50733
ltoes 20.1751
1975
root 2.56799 14.3371 9.31514 101.405 1.14998 -7.67627
lowerback -23.1195 13.1169 -0.750663
upperback -6.79795 17.853 6.40197
thorax 2.40404 9.33349 11.5006
lowerneck 2.58599 7.82169 39.4784
upperneck 23.9516 11.0332 -13.8754
head 10.6413 7.46029 -10.3798
rclavicle -1.30403e-013 -7.4743e-014
rhumerus 57.5115 -1.27206 4.39562
rradius 29.4696
rwrist -11.0127
rhand -27.7446 -7.79583
rfingers 7.12502
rthumb -1.1392 -37.7725
lclavicle -1.30403e-013 -7.4743e-014
lhumerus -50.3806 -40.1409 56.4036
lradius 13.0071
lwrist -19.4267
lhand -35.8423 -28.2012
lfingers 7.12502
lthumb -8.95766 1.58864
rfemur -49.3851 2.35058 14.1954
rtibia 31.319
rfoot 12.0432 -8.86699
rtoes 24.2701
lfemur -45.1265 9.37573 -36.8979
ltibia 57.0404
lfoot 30.1635 1.2194
ltoes 19.8895
1976
root 2.56898 14.3343 9.28921 101.209 1.49125 -7.51766
lowerback -22.9856 12.9498 -0.417088
upperback -6.77547 17.5332 6.47461
thorax 2.49869 9.15378 11.3337
lowerneck 3.35428 7.81287 39.3274
upperneck 23.478 11.3778 -14.0783
head 10.4176 7.58313 -10.3997
rclavicle 8.90555e-014 9.70069e-014
rhumerus 57.7015 -0.972612 4.57647
rradius 29.2601
rwrist -9.68169
rhand -27.6735 -7.15794
rfingers 7.12502
rthumb -1.07056 -37.135
lclavicle 8.90555e-014 9.70069e-014
lhumerus -47.3509 -37.7132 50.4732
lradius 12.229
lwrist -22.8197
lhand -35.418 -27.1768
lfingers 7.12502
lthumb -8.54817 2.63014
rfemur -49.2907 1.95739 14.408
rtibia 32.7799
rfoot 12.5744 -8.35648
rtoes 23.9819
lfemur -45.6486 8.90699 -36.6709
ltibia 56.8422
lfoot 30.2837 0.849522
ltoes 19.2674
1977
root 2.56861 14.3311 9.26281 101.031 1.83967 -7.39142
lowerback -22.8649 12.7709 -0.071303
upperback -6.75097 17.194 6.54888
thorax 2.60532 8.96357 11.1613
lowerneck 4.14655 7.80958 39.1612
upperneck 22.9256 11.7454 -14.3387
head 10.1706 7.71042 -10.4385
rclavicle 3.18055e-015 3.97569e-015
rhumerus 57.9392 -0.681359 4.70386
rradius 29.0552
rwrist -8.24359
rhand -27.6172 -6.48105
rfingers 7.12502
rthumb -1.01619 -36.4584
lclavicle 3.18055e-015 3.97569e-015
lhumerus -44.525 -35.0206 44.6192
lradius 11.512
lwrist -26.9818
lhand -35.1091 -26.1055
lfingers 7.12502
lthumb -8.25003 3.71341
rfemur -49.1901 1.5681 14.6207
rtibia 34.2718
rfoot 13.182 -7.87096
rtoes 23.9027
lfemur -46.2018 8.44336 -36.4251
ltibia 56.4627
lfoot 29.8758 0.4884
ltoes 18.1372
